<svg width="266" height="74" viewBox="0 0 266 74" fill="none" xmlns="http://www.w3.org/2000/svg">
<rect y="7" width="67" height="67" rx="6" fill="#4596B9"/>
<rect x="6.32074" y="15.5273" width="24.0189" height="23.1455" rx="3" fill="white" fill-opacity="0.9"/>
<rect x="35.3962" y="15.5273" width="24.0189" height="23.1455" rx="3" fill="white" fill-opacity="0.9"/>
<rect x="35.3962" y="43.5454" width="24.0189" height="23.1455" rx="3" fill="#3A84A5" fill-opacity="0.9"/>
<rect x="6.32074" y="43.5454" width="24.0189" height="23.1455" rx="3" fill="white" fill-opacity="0.9"/>
<path d="M111.291 56.9502V26.4082C111.291 25.4479 111.698 24.6829 112.512 24.1133C113.342 23.5436 114.074 23.2588 114.709 23.2588C115.262 23.2588 115.539 23.6087 115.539 24.3086V54.6064C115.539 55.4202 115.376 56.0143 115.051 56.3887C114.628 56.877 114.107 57.3083 113.488 57.6826C112.886 58.057 112.406 58.2441 112.048 58.2441C111.901 58.2441 111.779 58.2279 111.682 58.1953C111.6 58.1628 111.511 58.0488 111.413 57.8535C111.332 57.6419 111.291 57.3408 111.291 56.9502ZM108.068 53.1416L91.54 26.7988C91.3447 26.4896 91.2471 26.2048 91.2471 25.9443C91.2471 25.5863 91.4342 25.2038 91.8086 24.7969C92.7852 23.7715 93.6966 23.2588 94.543 23.2588C94.9499 23.2588 95.3161 23.5192 95.6416 24.04L108.874 44.9629C109.313 45.6465 109.582 46.2812 109.68 46.8672C109.777 47.4368 109.826 48.3646 109.826 49.6504C109.826 52.515 109.525 53.9473 108.923 53.9473C108.711 53.9473 108.459 53.7194 108.166 53.2637C108.117 53.2148 108.085 53.1742 108.068 53.1416ZM95.1533 35.5391C95.4137 36.1413 95.5439 36.8818 95.5439 37.7607V54.6064C95.5439 55.4202 95.3812 56.0143 95.0557 56.3887C94.6488 56.877 94.1279 57.3083 93.4932 57.6826C92.8747 58.057 92.4027 58.2441 92.0771 58.2441C91.5563 58.2441 91.2959 57.8942 91.2959 57.1943V31.4375C91.2959 31.0469 91.4505 30.8516 91.7598 30.8516C91.9714 30.8516 92.1992 30.998 92.4434 31.291C92.7038 31.584 93.1188 32.1536 93.6885 33C94.3395 33.9766 94.8278 34.8229 95.1533 35.5391ZM137.365 48.332V54.6064C137.365 55.404 137.194 55.998 136.853 56.3887C136.446 56.877 135.868 57.3083 135.119 57.6826C134.387 58.057 133.785 58.2441 133.312 58.2441C132.743 58.2441 132.458 57.8942 132.458 57.1943V48.332C132.458 47.7461 132.661 47.3473 133.068 47.1357C133.492 46.9242 134.118 46.8184 134.948 46.8184C135.843 46.8184 136.47 46.9242 136.828 47.1357C137.186 47.3311 137.365 47.7298 137.365 48.332ZM132.458 43.5713V30.5586C132.458 29.9727 132.653 29.5902 133.044 29.4111C133.451 29.2158 134.069 29.1182 134.899 29.1182C135.811 29.1182 136.446 29.2158 136.804 29.4111C137.178 29.5902 137.365 29.9727 137.365 30.5586V40.7393C137.365 41.4391 137.674 41.7891 138.293 41.7891H142.37C143.07 41.7891 143.42 41.9925 143.42 42.3994C143.42 42.79 143.062 43.2458 142.346 43.7666C141.646 44.2712 140.743 44.6943 139.636 45.0361C138.952 45.2477 137.259 45.3535 134.558 45.3535C133.728 45.3535 133.166 45.207 132.873 44.9141C132.596 44.6211 132.458 44.1735 132.458 43.5713ZM148.156 35.8564C148.156 30.4365 144.942 27.7266 138.513 27.7266H133.41C133.199 27.7266 133.028 27.7184 132.897 27.7021C132.784 27.6859 132.678 27.637 132.58 27.5557C132.499 27.458 132.458 27.3278 132.458 27.165C132.458 26.4814 132.922 25.749 133.85 24.9678C134.794 24.1865 135.729 23.7796 136.657 23.7471L139.245 23.7227L142.37 23.7471C143.249 23.7633 144.136 23.8691 145.031 24.0645C145.943 24.2435 146.911 24.5934 147.937 25.1143C148.962 25.6351 149.865 26.2943 150.646 27.0918C151.428 27.8893 152.071 28.9635 152.575 30.3145C153.096 31.6654 153.356 33.1953 153.356 34.9043C153.356 35.5716 153.267 36.304 153.088 37.1016C152.925 37.8991 152.608 38.7861 152.136 39.7627C151.68 40.7393 151.102 41.6344 150.402 42.4482C149.719 43.2458 148.791 43.9619 147.619 44.5967C146.447 45.2152 145.129 45.6139 143.664 45.793H143.518C143.078 45.793 142.858 45.6058 142.858 45.2314C142.858 45.0036 143.046 44.7757 143.42 44.5479C146.577 42.5947 148.156 39.6976 148.156 35.8564ZM165.637 58.7568C164.27 58.7568 163.09 58.5778 162.097 58.2197C161.12 57.8779 160.323 57.3083 159.704 56.5107C159.086 55.6969 158.63 54.6471 158.337 53.3613C158.044 52.0755 157.897 50.4886 157.897 48.6006V35.3438C157.897 34.9043 158.011 34.4974 158.239 34.123C158.483 33.7324 158.776 33.3988 159.118 33.1221C159.476 32.8454 159.859 32.6338 160.266 32.4873C160.689 32.3245 161.079 32.2432 161.438 32.2432C162.007 32.2432 162.292 32.5931 162.292 33.293V48.1611L162.39 50.041C162.455 50.9688 162.585 51.7663 162.78 52.4336C162.976 53.0846 163.269 53.6217 163.659 54.0449C164.05 54.4518 164.538 54.7529 165.124 54.9482C165.726 55.1436 166.451 55.2412 167.297 55.2412C168.648 55.2412 169.877 54.9238 170.983 54.2891C171.293 54.11 171.496 54.0205 171.594 54.0205C171.74 54.0205 171.838 54.0775 171.887 54.1914C171.952 54.3053 171.984 54.5495 171.984 54.9238C171.984 55.6074 171.748 56.1934 171.276 56.6816C170.804 57.1536 170.235 57.5443 169.567 57.8535C168.9 58.1628 168.2 58.3906 167.468 58.5371C166.752 58.6836 166.141 58.7568 165.637 58.7568ZM177.624 33.293V55.168C177.624 56.0469 177.217 56.7793 176.403 57.3652C175.606 57.9512 174.833 58.2441 174.084 58.2441C173.514 58.2441 173.229 57.8942 173.229 57.1943V35.3193C173.229 34.473 173.636 33.7487 174.45 33.1465C175.264 32.5443 176.037 32.2432 176.77 32.2432C177.339 32.2432 177.624 32.5931 177.624 33.293ZM184.509 51.8721L192.858 38.6885C193.184 38.1839 193.558 37.8503 193.981 37.6875C194.405 37.5085 195.039 37.4189 195.886 37.4189C197.009 37.4189 197.57 37.6305 197.57 38.0537C197.57 38.2653 197.432 38.599 197.155 39.0547L188.635 52.5312C188.26 53.166 187.504 53.4834 186.364 53.4834H185.314C184.501 53.4834 184.094 53.2799 184.094 52.873C184.094 52.6615 184.232 52.3278 184.509 51.8721ZM185.656 33H199.328C200.028 33 200.378 33.2523 200.378 33.7568C200.378 33.9847 200.256 34.3102 200.012 34.7334C199.768 35.1566 199.418 35.5716 198.962 35.9785C198.588 36.3203 197.993 36.4912 197.18 36.4912H182.653C182.425 36.4912 182.246 36.4831 182.116 36.4668C182.002 36.4342 181.896 36.361 181.799 36.2471C181.701 36.1331 181.652 35.9704 181.652 35.7588C181.652 35.1891 182.084 34.5869 182.946 33.9521C183.825 33.3174 184.729 33 185.656 33ZM184.509 54.5088H199.133C199.833 54.5088 200.183 54.7611 200.183 55.2656C200.183 55.4935 200.061 55.819 199.816 56.2422C199.572 56.6654 199.222 57.0804 198.767 57.4873C198.392 57.8291 197.798 58 196.984 58H182.458C181.807 58 181.481 57.7721 181.481 57.3164C181.481 56.7142 181.815 56.0794 182.482 55.4121C183.052 54.8099 183.728 54.5088 184.509 54.5088ZM205.261 51.8721L213.61 38.6885C213.936 38.1839 214.31 37.8503 214.733 37.6875C215.157 37.5085 215.791 37.4189 216.638 37.4189C217.761 37.4189 218.322 37.6305 218.322 38.0537C218.322 38.2653 218.184 38.599 217.907 39.0547L209.387 52.5312C209.012 53.166 208.256 53.4834 207.116 53.4834H206.066C205.253 53.4834 204.846 53.2799 204.846 52.873C204.846 52.6615 204.984 52.3278 205.261 51.8721ZM206.408 33H220.08C220.78 33 221.13 33.2523 221.13 33.7568C221.13 33.9847 221.008 34.3102 220.764 34.7334C220.52 35.1566 220.17 35.5716 219.714 35.9785C219.34 36.3203 218.745 36.4912 217.932 36.4912H203.405C203.177 36.4912 202.998 36.4831 202.868 36.4668C202.754 36.4342 202.648 36.361 202.551 36.2471C202.453 36.1331 202.404 35.9704 202.404 35.7588C202.404 35.1891 202.836 34.5869 203.698 33.9521C204.577 33.3174 205.48 33 206.408 33ZM205.261 54.5088H219.885C220.585 54.5088 220.935 54.7611 220.935 55.2656C220.935 55.4935 220.812 55.819 220.568 56.2422C220.324 56.6654 219.974 57.0804 219.519 57.4873C219.144 57.8291 218.55 58 217.736 58H203.21C202.559 58 202.233 57.7721 202.233 57.3164C202.233 56.7142 202.567 56.0794 203.234 55.4121C203.804 54.8099 204.479 54.5088 205.261 54.5088ZM225.134 57.1943V23.5518C225.134 22.6729 225.533 21.9486 226.33 21.3789C227.128 20.793 227.909 20.5 228.674 20.5C229.243 20.5 229.528 20.8499 229.528 21.5498V55.1924C229.528 56.0876 229.13 56.82 228.332 57.3896C227.535 57.9593 226.753 58.2441 225.988 58.2441C225.419 58.2441 225.134 57.8942 225.134 57.1943ZM239.538 42.4482C239.538 42.904 239.676 43.1969 239.953 43.3271C240.246 43.4411 240.669 43.498 241.223 43.498C242.639 43.498 243.851 43.376 244.86 43.1318C245.869 42.8877 246.643 42.5459 247.18 42.1064C247.717 41.667 248.099 41.2031 248.327 40.7148C248.571 40.2266 248.693 39.6895 248.693 39.1035C248.693 38.0944 248.343 37.2887 247.644 36.6865C246.944 36.068 245.821 35.7588 244.274 35.7588C241.849 35.7588 239.571 36.5238 237.438 38.0537C236.804 38.5257 236.405 38.7617 236.242 38.7617C235.965 38.7617 235.827 38.6071 235.827 38.2979C235.827 37.891 236.063 37.3945 236.535 36.8086C237.414 35.6855 238.415 34.766 239.538 34.0498C240.661 33.3337 241.687 32.8535 242.614 32.6094C243.542 32.3652 244.462 32.2432 245.373 32.2432C246.545 32.2432 247.603 32.3652 248.547 32.6094C249.491 32.8535 250.329 33.236 251.062 33.7568C251.794 34.2614 252.364 34.9613 252.771 35.8564C253.177 36.7354 253.381 37.7689 253.381 38.957C253.381 41.4961 252.168 43.4574 249.743 44.8408C247.334 46.208 244.038 46.8916 239.855 46.8916C238.684 46.8916 237.357 46.8265 235.876 46.6963C235.144 46.6475 234.777 46.2894 234.777 45.6221C234.777 43.8154 235.038 42.4645 235.559 41.5693C236.079 40.6579 236.755 39.958 237.585 39.4697C238.399 38.9977 239.017 38.7617 239.44 38.7617C239.831 38.7617 240.026 39.0059 240.026 39.4941C240.026 39.6895 239.945 40.1696 239.782 40.9346C239.619 41.6833 239.538 42.1878 239.538 42.4482ZM234.973 49.2598C234.973 48.4134 235.363 47.9902 236.145 47.9902H238.244C238.667 47.9902 238.96 48.0716 239.123 48.2344C239.302 48.3971 239.44 48.7552 239.538 49.3086C240.173 53.2637 242.338 55.2412 246.032 55.2412C246.96 55.2412 247.831 55.1273 248.645 54.8994C249.458 54.6715 250.085 54.4193 250.524 54.1426C250.98 53.8659 251.395 53.6136 251.77 53.3857C252.16 53.1579 252.445 53.0439 252.624 53.0439C252.998 53.0439 253.186 53.2474 253.186 53.6543C253.186 53.9961 252.998 54.4355 252.624 54.9727C252.25 55.5098 251.713 56.0713 251.013 56.6572C250.329 57.2269 249.377 57.7152 248.156 58.1221C246.952 58.5452 245.642 58.7568 244.226 58.7568C241.296 58.7568 239.017 57.8779 237.39 56.1201C235.778 54.346 234.973 52.0592 234.973 49.2598Z" fill="white" fill-opacity="0.7"/>
</svg>
