<svg width="266" height="74" viewBox="0 0 266 74" fill="none" xmlns="http://www.w3.org/2000/svg">
<rect y="7" width="67" height="67" rx="6" fill="#4596B9"/>
<rect x="6.32074" y="15.5273" width="24.0189" height="23.1455" rx="3" fill="white" fill-opacity="0.9"/>
<rect x="35.3962" y="15.5273" width="24.0189" height="23.1455" rx="3" fill="white" fill-opacity="0.9"/>
<rect x="35.3962" y="43.5454" width="24.0189" height="23.1455" rx="3" fill="#3A84A5" fill-opacity="0.9"/>
<rect x="6.32074" y="43.5454" width="24.0189" height="23.1455" rx="3" fill="white" fill-opacity="0.9"/>
<path d="M88.3662 34.9287L94.1035 29.2646C94.5918 28.7926 94.9417 28.5566 95.1533 28.5566C95.3975 28.5566 95.5602 28.695 95.6416 28.9717C95.723 29.2484 95.7637 29.8099 95.7637 30.6562C95.7637 32.1536 95.4463 33.2197 94.8115 33.8545L93.6152 35.0508C93.0781 35.5879 92.5654 35.9622 92.0771 36.1738C91.5889 36.3691 90.9704 36.4668 90.2217 36.4668C89.5055 36.4668 88.9521 36.418 88.5615 36.3203C88.1872 36.2227 88 36.0111 88 35.6855C88 35.4251 88.1221 35.1729 88.3662 34.9287ZM101.745 24.3086V54.6064C101.745 55.404 101.574 55.998 101.232 56.3887C100.793 56.8932 100.264 57.3327 99.6455 57.707C99.0433 58.0651 98.5225 58.2441 98.083 58.2441C97.5133 58.2441 97.2285 57.8942 97.2285 57.1943V26.8965C97.2285 26.2129 97.3994 25.6676 97.7412 25.2607C98.1969 24.7236 98.7178 24.2598 99.3037 23.8691C99.9059 23.4622 100.435 23.2588 100.891 23.2588C101.46 23.2588 101.745 23.6087 101.745 24.3086ZM111.95 31.1934V35.7832C111.95 36.3203 112.064 36.6702 112.292 36.833C112.536 36.9958 112.845 37.0771 113.22 37.0771C113.496 37.0771 113.903 37.069 114.44 37.0527C114.994 37.0365 115.352 37.0283 115.515 37.0283C117.191 37.0283 118.697 37.2318 120.031 37.6387C121.382 38.0293 122.578 38.6478 123.62 39.4941C124.662 40.3242 125.459 41.4473 126.013 42.8633C126.582 44.2793 126.867 45.9395 126.867 47.8438C126.867 49.2109 126.615 50.5293 126.11 51.7988C125.622 53.0521 125.004 54.0938 124.255 54.9238C123.522 55.7376 122.749 56.3887 121.936 56.877C121.138 57.3652 120.414 57.6094 119.763 57.6094C119.6 57.6094 119.462 57.5687 119.348 57.4873C119.25 57.3896 119.201 57.2757 119.201 57.1455C119.201 57.0316 119.242 56.9014 119.323 56.7549C119.421 56.6084 119.559 56.3968 119.738 56.1201C119.934 55.8434 120.104 55.5667 120.251 55.29C121.39 53.109 121.96 50.9118 121.96 48.6982C121.96 46.029 121.26 44.0189 119.86 42.668C118.461 41.3008 116.247 40.6172 113.22 40.6172C112.666 40.6172 111.918 40.6904 110.974 40.8369C110.046 40.9671 109.46 41.0322 109.216 41.0322C108.386 41.0322 107.971 40.5765 107.971 39.665V31.1934C107.971 30.2331 108.63 29.7529 109.948 29.7529C110.632 29.7529 111.136 29.8506 111.462 30.0459C111.787 30.2249 111.95 30.6074 111.95 31.1934ZM112.756 58.7568C110.835 58.7568 109.102 58.0895 107.556 56.7549C107.019 56.234 106.75 55.7295 106.75 55.2412C106.75 54.9157 106.953 54.5332 107.36 54.0938C108.386 53.0684 109.305 52.5557 110.119 52.5557C110.656 52.5557 111.25 52.8405 111.901 53.4102C113.122 54.403 114.294 54.8994 115.417 54.8994C116.003 54.8994 116.564 54.7773 117.102 54.5332C117.655 54.2728 117.989 54.1426 118.103 54.1426C118.509 54.1426 118.713 54.3786 118.713 54.8506C118.713 55.0459 118.664 55.29 118.566 55.583C118.469 55.876 118.273 56.2178 117.98 56.6084C117.704 56.9827 117.354 57.3245 116.931 57.6338C116.524 57.943 115.954 58.2035 115.222 58.415C114.489 58.6429 113.667 58.7568 112.756 58.7568ZM121.569 28.2393H109.021C108.646 28.2393 108.378 28.1904 108.215 28.0928C108.052 27.9951 107.971 27.8161 107.971 27.5557C107.971 27.2301 108.158 26.693 108.532 25.9443C108.907 25.1956 109.297 24.6341 109.704 24.2598C110.078 23.918 110.681 23.7471 111.511 23.7471H124.157C124.857 23.7471 125.207 24.0319 125.207 24.6016C125.207 25.0573 125.004 25.5863 124.597 26.1885C124.206 26.7744 123.742 27.2952 123.205 27.751C122.798 28.0765 122.253 28.2393 121.569 28.2393ZM147.912 48.332V54.6064C147.912 55.404 147.741 55.998 147.399 56.3887C146.993 56.877 146.415 57.3083 145.666 57.6826C144.934 58.057 144.331 58.2441 143.859 58.2441C143.29 58.2441 143.005 57.8942 143.005 57.1943V48.332C143.005 47.7461 143.208 47.3473 143.615 47.1357C144.038 46.9242 144.665 46.8184 145.495 46.8184C146.39 46.8184 147.017 46.9242 147.375 47.1357C147.733 47.3311 147.912 47.7298 147.912 48.332ZM143.005 43.5713V30.5586C143.005 29.9727 143.2 29.5902 143.591 29.4111C143.998 29.2158 144.616 29.1182 145.446 29.1182C146.358 29.1182 146.993 29.2158 147.351 29.4111C147.725 29.5902 147.912 29.9727 147.912 30.5586V40.7393C147.912 41.4391 148.221 41.7891 148.84 41.7891H152.917C153.617 41.7891 153.967 41.9925 153.967 42.3994C153.967 42.79 153.609 43.2458 152.893 43.7666C152.193 44.2712 151.289 44.6943 150.183 45.0361C149.499 45.2477 147.806 45.3535 145.104 45.3535C144.274 45.3535 143.713 45.207 143.42 44.9141C143.143 44.6211 143.005 44.1735 143.005 43.5713ZM158.703 35.8564C158.703 30.4365 155.489 27.7266 149.06 27.7266H143.957C143.745 27.7266 143.575 27.7184 143.444 27.7021C143.33 27.6859 143.225 27.637 143.127 27.5557C143.046 27.458 143.005 27.3278 143.005 27.165C143.005 26.4814 143.469 25.749 144.396 24.9678C145.34 24.1865 146.276 23.7796 147.204 23.7471L149.792 23.7227L152.917 23.7471C153.796 23.7633 154.683 23.8691 155.578 24.0645C156.49 24.2435 157.458 24.5934 158.483 25.1143C159.509 25.6351 160.412 26.2943 161.193 27.0918C161.975 27.8893 162.618 28.9635 163.122 30.3145C163.643 31.6654 163.903 33.1953 163.903 34.9043C163.903 35.5716 163.814 36.304 163.635 37.1016C163.472 37.8991 163.155 38.7861 162.683 39.7627C162.227 40.7393 161.649 41.6344 160.949 42.4482C160.266 43.2458 159.338 43.9619 158.166 44.5967C156.994 45.2152 155.676 45.6139 154.211 45.793H154.064C153.625 45.793 153.405 45.6058 153.405 45.2314C153.405 45.0036 153.592 44.7757 153.967 44.5479C157.124 42.5947 158.703 39.6976 158.703 35.8564ZM176.184 58.7568C174.816 58.7568 173.636 58.5778 172.644 58.2197C171.667 57.8779 170.869 57.3083 170.251 56.5107C169.632 55.6969 169.177 54.6471 168.884 53.3613C168.591 52.0755 168.444 50.4886 168.444 48.6006V35.3438C168.444 34.9043 168.558 34.4974 168.786 34.123C169.03 33.7324 169.323 33.3988 169.665 33.1221C170.023 32.8454 170.406 32.6338 170.812 32.4873C171.236 32.3245 171.626 32.2432 171.984 32.2432C172.554 32.2432 172.839 32.5931 172.839 33.293V48.1611L172.937 50.041C173.002 50.9688 173.132 51.7663 173.327 52.4336C173.522 53.0846 173.815 53.6217 174.206 54.0449C174.597 54.4518 175.085 54.7529 175.671 54.9482C176.273 55.1436 176.997 55.2412 177.844 55.2412C179.195 55.2412 180.424 54.9238 181.53 54.2891C181.84 54.11 182.043 54.0205 182.141 54.0205C182.287 54.0205 182.385 54.0775 182.434 54.1914C182.499 54.3053 182.531 54.5495 182.531 54.9238C182.531 55.6074 182.295 56.1934 181.823 56.6816C181.351 57.1536 180.782 57.5443 180.114 57.8535C179.447 58.1628 178.747 58.3906 178.015 58.5371C177.299 58.6836 176.688 58.7568 176.184 58.7568ZM188.171 33.293V55.168C188.171 56.0469 187.764 56.7793 186.95 57.3652C186.153 57.9512 185.38 58.2441 184.631 58.2441C184.061 58.2441 183.776 57.8942 183.776 57.1943V35.3193C183.776 34.473 184.183 33.7487 184.997 33.1465C185.811 32.5443 186.584 32.2432 187.316 32.2432C187.886 32.2432 188.171 32.5931 188.171 33.293ZM195.056 51.8721L203.405 38.6885C203.731 38.1839 204.105 37.8503 204.528 37.6875C204.951 37.5085 205.586 37.4189 206.433 37.4189C207.556 37.4189 208.117 37.6305 208.117 38.0537C208.117 38.2653 207.979 38.599 207.702 39.0547L199.182 52.5312C198.807 53.166 198.05 53.4834 196.911 53.4834H195.861C195.048 53.4834 194.641 53.2799 194.641 52.873C194.641 52.6615 194.779 52.3278 195.056 51.8721ZM196.203 33H209.875C210.575 33 210.925 33.2523 210.925 33.7568C210.925 33.9847 210.803 34.3102 210.559 34.7334C210.314 35.1566 209.965 35.5716 209.509 35.9785C209.134 36.3203 208.54 36.4912 207.727 36.4912H193.2C192.972 36.4912 192.793 36.4831 192.663 36.4668C192.549 36.4342 192.443 36.361 192.346 36.2471C192.248 36.1331 192.199 35.9704 192.199 35.7588C192.199 35.1891 192.631 34.5869 193.493 33.9521C194.372 33.3174 195.275 33 196.203 33ZM195.056 54.5088H209.68C210.38 54.5088 210.729 54.7611 210.729 55.2656C210.729 55.4935 210.607 55.819 210.363 56.2422C210.119 56.6654 209.769 57.0804 209.313 57.4873C208.939 57.8291 208.345 58 207.531 58H193.005C192.354 58 192.028 57.7721 192.028 57.3164C192.028 56.7142 192.362 56.0794 193.029 55.4121C193.599 54.8099 194.274 54.5088 195.056 54.5088ZM215.808 51.8721L224.157 38.6885C224.483 38.1839 224.857 37.8503 225.28 37.6875C225.703 37.5085 226.338 37.4189 227.185 37.4189C228.308 37.4189 228.869 37.6305 228.869 38.0537C228.869 38.2653 228.731 38.599 228.454 39.0547L219.934 52.5312C219.559 53.166 218.802 53.4834 217.663 53.4834H216.613C215.799 53.4834 215.393 53.2799 215.393 52.873C215.393 52.6615 215.531 52.3278 215.808 51.8721ZM216.955 33H230.627C231.327 33 231.677 33.2523 231.677 33.7568C231.677 33.9847 231.555 34.3102 231.311 34.7334C231.066 35.1566 230.716 35.5716 230.261 35.9785C229.886 36.3203 229.292 36.4912 228.479 36.4912H213.952C213.724 36.4912 213.545 36.4831 213.415 36.4668C213.301 36.4342 213.195 36.361 213.098 36.2471C213 36.1331 212.951 35.9704 212.951 35.7588C212.951 35.1891 213.382 34.5869 214.245 33.9521C215.124 33.3174 216.027 33 216.955 33ZM215.808 54.5088H230.432C231.132 54.5088 231.481 54.7611 231.481 55.2656C231.481 55.4935 231.359 55.819 231.115 56.2422C230.871 56.6654 230.521 57.0804 230.065 57.4873C229.691 57.8291 229.097 58 228.283 58H213.757C213.106 58 212.78 57.7721 212.78 57.3164C212.78 56.7142 213.114 56.0794 213.781 55.4121C214.351 54.8099 215.026 54.5088 215.808 54.5088ZM235.681 57.1943V23.5518C235.681 22.6729 236.079 21.9486 236.877 21.3789C237.674 20.793 238.456 20.5 239.221 20.5C239.79 20.5 240.075 20.8499 240.075 21.5498V55.1924C240.075 56.0876 239.676 56.82 238.879 57.3896C238.081 57.9593 237.3 58.2441 236.535 58.2441C235.965 58.2441 235.681 57.8942 235.681 57.1943ZM250.085 42.4482C250.085 42.904 250.223 43.1969 250.5 43.3271C250.793 43.4411 251.216 43.498 251.77 43.498C253.186 43.498 254.398 43.376 255.407 43.1318C256.416 42.8877 257.189 42.5459 257.727 42.1064C258.264 41.667 258.646 41.2031 258.874 40.7148C259.118 40.2266 259.24 39.6895 259.24 39.1035C259.24 38.0944 258.89 37.2887 258.19 36.6865C257.491 36.068 256.368 35.7588 254.821 35.7588C252.396 35.7588 250.118 36.5238 247.985 38.0537C247.351 38.5257 246.952 38.7617 246.789 38.7617C246.512 38.7617 246.374 38.6071 246.374 38.2979C246.374 37.891 246.61 37.3945 247.082 36.8086C247.961 35.6855 248.962 34.766 250.085 34.0498C251.208 33.3337 252.233 32.8535 253.161 32.6094C254.089 32.3652 255.008 32.2432 255.92 32.2432C257.092 32.2432 258.15 32.3652 259.094 32.6094C260.038 32.8535 260.876 33.236 261.608 33.7568C262.341 34.2614 262.91 34.9613 263.317 35.8564C263.724 36.7354 263.928 37.7689 263.928 38.957C263.928 41.4961 262.715 43.4574 260.29 44.8408C257.881 46.208 254.585 46.8916 250.402 46.8916C249.23 46.8916 247.904 46.8265 246.423 46.6963C245.69 46.6475 245.324 46.2894 245.324 45.6221C245.324 43.8154 245.585 42.4645 246.105 41.5693C246.626 40.6579 247.302 39.958 248.132 39.4697C248.946 38.9977 249.564 38.7617 249.987 38.7617C250.378 38.7617 250.573 39.0059 250.573 39.4941C250.573 39.6895 250.492 40.1696 250.329 40.9346C250.166 41.6833 250.085 42.1878 250.085 42.4482ZM245.52 49.2598C245.52 48.4134 245.91 47.9902 246.691 47.9902H248.791C249.214 47.9902 249.507 48.0716 249.67 48.2344C249.849 48.3971 249.987 48.7552 250.085 49.3086C250.72 53.2637 252.884 55.2412 256.579 55.2412C257.507 55.2412 258.378 55.1273 259.191 54.8994C260.005 54.6715 260.632 54.4193 261.071 54.1426C261.527 53.8659 261.942 53.6136 262.316 53.3857C262.707 53.1579 262.992 53.0439 263.171 53.0439C263.545 53.0439 263.732 53.2474 263.732 53.6543C263.732 53.9961 263.545 54.4355 263.171 54.9727C262.797 55.5098 262.259 56.0713 261.56 56.6572C260.876 57.2269 259.924 57.7152 258.703 58.1221C257.499 58.5452 256.188 58.7568 254.772 58.7568C251.843 58.7568 249.564 57.8779 247.937 56.1201C246.325 54.346 245.52 52.0592 245.52 49.2598Z" fill="white" fill-opacity="0.7"/>
</svg>
